<?xml version="1.0" encoding="UTF-8"?>
<svg xmlns="http://www.w3.org/2000/svg" xmlns:xlink="http://www.w3.org/1999/xlink" viewBox="0 0 1404.96 794.22">
  <defs>
    <style>
      .cls-1, .cls-2 {
        font-size: 48px;
      }

      .cls-1, .cls-2, .cls-3 {
        font-family: ChangaOne, 'Changa One';
      }

      .cls-1, .cls-4, .cls-5 {
        fill: #f9f9f9;
      }

      .cls-6 {
        stroke: #f9f9f9;
        stroke-linecap: round;
        stroke-linejoin: round;
        stroke-width: 3px;
      }

      .cls-6, .cls-7 {
        fill: none;
      }

      .cls-2, .cls-8, .cls-3 {
        fill: #5c5ce9;
      }

      .cls-9 {
        letter-spacing: 0em;
      }

      .cls-10 {
        letter-spacing: 0em;
      }

      .cls-11 {
        fill: #ff6c6c;
      }

      .cls-3 {
        font-size: 41.83px;
      }

      .cls-12 {
        clip-path: url(#clippath);
      }

      .cls-13 {
        fill: #ff5757;
      }

      .cls-14 {
        letter-spacing: 0em;
      }

      .cls-5 {
        font-family: Bungee-Regular, Bungee;
        font-size: 29.5px;
      }
    </style>
    <clipPath id="clippath">
      <rect class="cls-7" width="1404.96" height="794.22"/>
    </clipPath>
  </defs>
  <g id="Camada_1" data-name="Camada 1">
    <rect class="cls-8" width="1404.96" height="794.22"/>
  </g>
  <g id="Camada_2" data-name="Camada 2">
    <g class="cls-12">
      <path class="cls-6" d="m32.97,447.7s7.77-4.53,7.79-4.5c.07.12-1.85,6.2-1.77,6.34.13.22,10.52-6.5,10.7-6.18.06.1,2.54,4.22,2.59,4.32.25.43,9.18-5.92,9.45-5.46s-15.81,14.17-15.57,14.58c.36.63,29.69-18.26,30.17-17.42.32.55-23.3,17.93-22.91,18.6.47.81,29.43-18.24,29.97-17.3.75,1.31-43.62,28.9-42.88,30.17.8,1.39,33.79-21.04,34.45-19.89.42.73-32.61,23.67-32.13,24.49.75,1.29,42.49-26.71,43.43-25.08s-57.67,37.18-56.76,38.74c1.06,1.83,64.86-40,65.97-38.09.58,1.01-42.83,28.34-42.14,29.53,1.24,2.14,59.88-37.51,61.15-35.31,1.13,1.96-75.33,47.57-74.41,49.16,1.32,2.29,75.44-46.05,76.52-44.18.98,1.69-78.16,48.99-77.19,50.66,1.42,2.46,99.34-60.11,100.53-58.04,1.85,3.2-114.15,67.47-112.57,70.22,1.4,2.42,111.34-67.59,112.77-65.11s-99.32,60.32-97.87,62.84c1.65,2.86,107.33-65.99,109.07-62.97,1.21,2.1-99.6,59.83-98.08,62.46,2.11,3.66,119.15-73.89,121.36-70.06s-140.26,82.3-138.55,85.27,126.81-77.69,128.75-74.33-123.78,72.75-121.85,76.1c2.39,4.15,148.68-90.99,150.91-87.13,1.7,2.95-125.43,74.05-123.39,77.58,1.7,2.94,137.51-84.55,139.75-80.68,1.97,3.42-145.03,83.37-142.59,87.6,1.82,3.16,130.93-80.59,133.09-76.84,2.05,3.56-138,80.66-135.68,84.67,1.95,3.37,154.31-93.03,156.02-90.08,2.11,3.66-130.44,75.64-128.19,79.52,1.65,2.86,137.68-83.73,139.52-80.55s-133.25,79.07-131.45,82.19,136.35-84.31,138.77-80.12c2.18,3.78-125.56,75.07-124.08,77.64,2.14,3.7,138.36-84.02,140.15-80.92s-143.26,83.71-141.26,87.17c1.65,2.85,137.27-84.34,139.47-80.52,2.43,4.2-140.13,82.43-138.11,85.92,2.29,3.96,163.25-99.07,165.33-95.46,2.21,3.83-131.63,76.94-129.74,80.2,1.71,2.97,120.8-73.72,122.52-70.74,2.11,3.66-133.41,77.94-131.45,81.33,2.1,3.63,157.18-95.97,159.44-92.05,2.06,3.57-147.98,85.58-145.67,89.59,1.7,2.94,151.37-92.07,153.4-88.56s-155.57,91.06-153.58,94.5,146.64-89.08,148.55-85.77c1.47,2.54-120.44,71.56-119.03,74.01,1.99,3.45,122.09-75.37,124.2-71.71,1.66,2.88-111.05,66.03-109.27,69.12,1.69,2.93,117.9-72.35,119.75-69.14,1.67,2.89-135.51,80.86-133.92,83.61,2.01,3.49,150.16-91.06,152.05-87.79,2.06,3.57-138.78,80.84-136.65,84.53s145.57-88.67,147.57-85.2c1.66,2.87-130.52,76.5-128.53,79.94,2.35,4.07,141.77-85.66,143.42-82.8,1.84,3.2-144.8,84.81-142.89,88.12,2.02,3.51,132.56-81.01,134.5-77.65,1.67,2.9-115.31,69.05-113.69,71.86,2.33,4.04,123.02-76.45,125.37-72.38,1.79,3.09-130.49,77.15-128.56,80.49,2.22,3.84,141.5-86.44,143.55-82.88,1.5,2.59-117.26,69.83-115.67,72.58,2.33,4.03,132.24-81.84,134.62-77.72,1.8,3.11-135.34,78.96-133.19,82.67,1.79,3.1,145.55-88.55,147.51-85.16,1.78,3.09-146.68,86.6-144.92,89.65,1.93,3.34,142.73-86.25,144.4-83.37,1.95,3.38-129.61,75.7-127.44,79.45s131.01-80.48,133.11-76.85c1.91,3.3-117.81,70.11-116.06,73.14,2.16,3.75,120.86-74.31,122.82-70.91,1.71,2.97-126.53,75.37-124.98,78.05,2.07,3.59,154.55-93.86,156.55-90.39,1.84,3.19-144.65,84-142.48,87.75,1.72,2.98,142.93-86.81,144.79-83.59,1.75,3.03-134.32,78.41-132.35,81.82,2.14,3.7,146.52-88.6,148.25-85.59,2.46,4.25-149.91,88.84-148.17,91.86,2.31,4.01,159.63-96.39,161.46-93.22,1.92,3.33-153.03,89.62-151.02,93.1,1.77,3.07,146.27-88.22,147.9-85.39,1.88,3.26-121.07,71.77-119.6,74.32,2.1,3.64,118.3-72.55,120.14-69.36,2.03,3.52-123.42,72.34-121.49,75.68s144.5-87.87,146.42-84.54-123.87,72.7-121.84,76.21c2.16,3.74,139.68-84.76,141.46-81.67s-133.98,79.45-132.31,82.34c2.06,3.57,139.39-84.4,141.09-81.46,1.81,3.14-133.67,78.08-131.57,81.72,2.4,4.16,128.95-78.47,130.69-75.46,1.52,2.63-130.77,76.6-128.87,79.89s120.87-74.86,123.06-71.05c1.39,2.41-105.83,63.85-104.32,66.46,1.72,2.97,122.36-75.69,124.54-71.9s-131.94,78.67-130.3,81.51,128.25-78.19,130.05-75.08c1.44,2.5-113.47,67.71-111.96,70.31,1.31,2.27,115.4-70.67,117.15-67.64,1.94,3.36-124.47,73.81-122.96,76.42s98.9-60.89,100.54-58.05c1.39,2.4-78.94,48.3-77.74,50.37,1.47,2.55,72.3-45.13,73.77-42.59,1,1.74-75.57,46.62-74.58,48.34,1.06,1.84,74.29-45.26,75.31-43.48.92,1.6-67.63,41.89-66.6,43.67,1.18,2.04,93.48-56.71,94.67-54.66,1.31,2.27-80.61,49.41-79.58,51.2.8,1.39,72.52-44.27,73.56-42.47.69,1.19-54.99,35.82-54.12,37.33.73,1.27,46.3-28.33,46.99-27.13.75,1.29-55.53,35.66-54.7,37.09.66,1.14,50.8-30.41,51.27-29.6.44.77-32.84,24.08-32.39,24.87.37.63,36.55-22.03,36.95-21.33s-30.53,22.98-30.13,23.66c.23.4,34.96-20.72,35.19-20.32s-13.54,13.04-13.33,13.41c.14.25,18.92-11.22,19.05-11"/>
      <text class="cls-2" transform="translate(67.99 499.25)"><tspan x="0" y="0" xml:space="preserve">Mais de +100  clientes </tspan></text>
      <rect class="cls-4" x="1002.84" y="643.62" width="402.12" height="63.83"/>
      <text class="cls-3" transform="translate(999.58 705.71)"><tspan x="0" y="0">Preços leves</tspan></text>
      <rect class="cls-8" x="38.96" y="126.39" width="304.26" height="193.4"/>
      <text class="cls-1" transform="translate(53.12 164.49)"><tspan x="0" y="0">Carregando confiaça</tspan><tspan x="0" y="57.6">de ...</tspan></text>
      <g>
        <path class="cls-11" d="m64.57,403.34c-.33-.93-1.15-.38-.91,2.03.44.55.94,1.08,1.45,1.58l-.19-.89-.11-.9-.23-1.82Z"/>
        <path class="cls-11" d="m66.16,419.66c.52.56,1.07,1.13,1.62,1.59.59.45,1.15.82,1.62,1.04.96.46,1.66.29,1.57-.74-1.26-.69-1.96-1.27-2.56-1.93-.32-.32-.65-.65-1.08-1.02-.4-.38-.88-.82-1.57-1.36-.62-1.08-.83-2.17-.94-2.88-.06-.73.13-1.15.41-1.03-.27-.36-.5-1.27-.71-2.24-.17-.98-.48-1.98-.95-2.58-.56,3.27.55,7.61,3.45,10.86.21.93-.54.34-.86.27Z"/>
        <path class="cls-11" d="m212.39,379.48l-1.6-.26c.43.11.98.2,1.6.26Z"/>
        <path class="cls-11" d="m365.29,359.95c-1.1.46-1.52.76-1.54.89,1.01-.47,1.82-.88,1.54-.89Z"/>
        <path class="cls-11" d="m389.73,343.1c-.03.82-.1,1.49-.35,2.17.37-.78.47-1.65.35-2.17Z"/>
        <path class="cls-11" d="m212.39,379.48l4.11.66c.31-.41-2.1-.43-4.11-.66Z"/>
        <path class="cls-11" d="m93.39,427.25c-.64.41-1.16.75-1.63,1.11.55-.29,1.08-.55,1.62-.88,0-.08,0-.15.01-.24Z"/>
        <path class="cls-11" d="m144.57,373.29l-1.24-.13c-.38.11-.74.25-1.09.42l2.33-.29Z"/>
        <path class="cls-11" d="m95.17,376.44c.92-.48.75-1.62.91-2.27-.35.71-.98,1.25-1.73,1.83.1.19.35.34.82.44Z"/>
        <path class="cls-11" d="m104.94,423.9c-.29.42-.6.83-.92,1.23.24-.32.67-.84.92-1.23Z"/>
        <path class="cls-11" d="m181.63,378.02c.07.18.24.34.43.45.02-.14-.16-.29-.43-.45Z"/>
        <path class="cls-11" d="m242.37,204c.04-.08-.02-.13-.01-.2-.29.12-.38.21.01.2Z"/>
        <path class="cls-11" d="m182,205.23l.82-.2c.05-.22.1-.45.07-.65l-.88.85Z"/>
        <path class="cls-11" d="m340.53,327.74c.09.02.13.02.21.04,1.28-.05.56-.07-.21-.04Z"/>
        <path class="cls-11" d="m329.05,296.9c-5.04-1.02,8.21-1.28.62-2.4.71.45-6.91,1.72-.62,2.4Z"/>
        <path class="cls-11" d="m94.5,426.83c.54-.3,1.07-.66,1.61-1-.74.44-1.23.75-1.61,1Z"/>
        <path class="cls-11" d="m329.67,294.49h0s-.78-.12-.78-.12c.32.05.51.08.78.12Z"/>
        <path class="cls-11" d="m229.32,324.94c.22.2.66.37,1.12.53-.03-.12-.29-.26-1.12-.53Z"/>
        <path class="cls-11" d="m312,328.7l-2.04-.22c.81.13,1.47.19,2.04.22Z"/>
        <path class="cls-11" d="m186.46,324.69c-1.1-.15-1.47-.33-2.99-.28.14.07.27.12.45.17.56-.12,1.29-.14,2.54.11Z"/>
        <path class="cls-11" d="m142.44,319.95c.21.13.5.25.75.37.43.06.93.13,1.38.19l-2.13-.57Z"/>
        <path class="cls-11" d="m375.62,217.46c-.87-.54-1.37-1.03-1.74-1.48.47.94-5.92-.35,1.74,1.48Z"/>
        <path class="cls-11" d="m93.69,427.81c.08-.36.32-.62.81-.98-.38.24-.76.46-1.13.67-.03.2.02.36.31.32Z"/>
        <path class="cls-11" d="m184.09,333.43l-7.13-.65c1.99.25,4.58.49,7.13.65Z"/>
        <path class="cls-11" d="m243.74,236.09h1.64c-.62-.07-1.21-.09-1.64,0Z"/>
        <path class="cls-11" d="m155.69,330.93c-1.23-.55-2.56-.95-3.94-1.29-.31.05-.66.07-.87.17,1.6.39,3.21.76,4.82,1.12Z"/>
        <path class="cls-11" d="m373.86,215.97s.01.02.01.02c0,0,0,0-.01-.02Z"/>
        <path class="cls-11" d="m327.95,209.46c6.59,1.04,3.32-.93,4.86-1.56,7.96.92,3.47,1.69,6.02,2.89,4.98.41,8.99-.14,12.64.65.22.29.92.53.02.65,5.43-.12,15.34,3.26,21.68,3.33.41.24.61.41.7.55-.79-.96-.76-1.73-.44-2.2,2.94.7,5.68.46,6.54,1.68-1.79-.49-2.04-.15-2.95-.07l3.17.38c2.41,2.06-4.31-.61-4.56.4,6.09,1.05,13.34,1.83,17.79,3.51.58,1.55-10.78-2.51-5.02.33l-6.92-2.4c4.85,3.49-4.25-1.27.12,2.25,9.15,2.86,10.54,2.12,19.6,5.22,2.28-.1-.36-1.28,1.92-1.38,6.72,1.35,9.01,3.01,10.88,4.46,1.87,1.46,3.3,2.7,8.3,3.49,2.72.01,4.29-1.31,10.61,2.08l-2.81.57c4.29,1.71,5.69,1.7,7.14,1.81,1.43.11,2.91.32,7.1,2.75-1.79-.17-6.84-2.38-5.63-1.67,2.64,1.76,3.72,2.01,4.71,2.04.99.04,1.88-.14,4.04.88l.3,1.65c2.19,1,4.4,2.03,6.56,3.15.49.26.99.52,1.49.79l.68.32c.41.21.86.45,1.3.78.42.33.91.76,1.02,1.34.08.59-.36,1.02-.8,1.3-.46.3-1,.53-1.59.72-.29.09-.6.18-.91.26l-.26.06-.48.09-.96.17c.53-.48,2.17-1.17-.25-1.22-6.43,1.21-13.84,1.33-21.08,1.11-7.28-.24-14.52-.88-21.16-1.56l-5.15.94c-1.19-.07-2.17-.64-.88-.8-5.18-.71-.31.73-2.83,1.06-2.97-.08-3.88-.89-1.98-1.14-9.23.52-26.33.47-35.92-1.57l1.92-.2c-7.5-1.07-8.71,1.72-15.62.04l1.36-.09c-16.33-1.88-34.53-2.49-46.86-5.43-2.53,1.46-16.14-2.29-17.41-.04-9.24-2.05-6.52-2.22-19.63-4.25-3.51-.44-5.39.97-9.76.82v-1.24s-6.02.75-6.02.75l-3.02-1.75-4.12-.05c1.62.22,3.41.86,3.13,1.19-6.43-.02-15.5-2.2-15.62-2.84-5.08-.06-10.17-.1-15.27-.07.37-.48,2.93-.48,4.97-.65-8.22.72-1.38-1.42-8.94-.71.99.33-.58.7-.76.94-1.85-.47-4.9-.81-8.36-.92-1.74-.05-3.57-.04-5.5.09-.99.08-1.95.17-3.19.43l-.48.11-.56.16c-.16.04-.44.15-.69.25l-.37.16c-.13.06-.37.18-.54.28-.19.11-.37.22-.54.35-.06.03-.26.2-.39.31-.15.13-.29.27-.42.41-.14.14-.26.29-.38.44-.06.08-.11.14-.18.24-.08.13-.16.26-.24.4-.3.55-.52,1.19-.62,1.79-.09.61-.06,1.28.07,1.9.07.35.14.51.21.71.08.2.16.4.26.59.1.19.21.38.31.55l.23.3c.16.2.32.39.49.57-.2-.16-.4-.34-.58-.52-.09-.1-.18-.18-.28-.29-.13-.18-.26-.36-.37-.56-.12-.19-.22-.4-.32-.6l-.13-.31c-.04-.12-.1-.3-.13-.46-.16-.65-.21-1.38-.13-2.03.08-.66.3-1.35.61-1.97.07-.15.17-.32.24-.43l.17-.27c.12-.18.25-.35.39-.52.14-.17.28-.33.44-.48l.39-.37c.17-.16.36-.32.55-.46-.4.25-.6.31-1.31.94-.29.27-.56.57-.79.88-.09.1-.31.45-.45.72-.15.29-.29.59-.39.9-.22.63-.34,1.23-.35,1.9-.02.64.1,1.39.26,1.89.23.81.82,1.78,1.06,2.04.16.21.33.41.51.6.17.18.25.24.38.36.23.21.52.45.67.55l.55.37.44.26c1.13.64,1.92.94,2.75,1.26,1.61.61,3.1,1.06,4.6,1.48,2.99.83,5.98,1.52,9.01,2.18,6.05,1.3,12.24,2.47,18.44,3.76-4.37-1.31-3.04-2.54.62-1.93l1.19,1.57c2.51-.3-3.69-1.26,1.32-1.24,4.59,1.09,2.82,2.09.07,1.96l5.72.7c.25.45-1.11.38-1.55.8,2.47-.32,9.46,3.23,13.06,2.5l.24.44c12.38,2.44,18.08,3.07,28.17,4.97.41-1.07,4.3-.06,7.48-.36,7.33,1.8,15.37,4.28,24.28,5.98,6.36.72,2.01-.56,4.96-.65.26,1.09,9.15,2.83,4.4,2.6,10.68,2.07,13.65,2.62,27.21,4.87-1.35-.75-2.95-1.3-2.03-1.44,2.47.39,5.43,1.71,4.96,2.11l-.66-.05c3.83.51,7.86,1.5,11.9,2.74,2.02.62,4.04,1.32,6.04,2.05l1.49.56c.31.11.35.15.44.2l.26.14c.31.18.57.36.8.52.9.68,1.07,1.06,1.29,1.54.07.14-.03.35-.17.43-.12.1-.22.17-.28.25-.13.16-.15.35-.17.64,0-.04.02-.08.02-.12-.24.25-.66.51-1.27.77-.31.13-.63.26-1.1.4l-3.1.55c-5.78.27,3.39-1.04-.92-1.34-6.67,1.36-12.1,1.49-17.19,1.5-5.1,0-9.9-.15-15.54.42-4.36-1.53-12.09-1.5-20.17-1.68-4.04-.12-8.19-.1-12.04-.4-3.85-.31-7.41-.7-10.29-1.43l.61.78c-3.08.39-3.61-.77-5.82-1.15.26.58,3.21.96,1.3,1.16-12.85-.78-25.96-2.99-39.21-5.57-6.62-1.28-13.33-2.6-20.15-3.68-6.81-1.11-13.79-1.79-20.78-2.02-10.28.19-5.61,3.56-18.38,3.39,1.13-.62,2.25-1.29,3.42-1.81-5.05,1.06-10.12,2.09-15.12,3.41-2.52.58-5.02,1.25-7.48,1.96-2.47.7-4.93,1.45-7.37,2.23-9.73,3.15-19.32,6.77-27.89,12.28.91-.85.75-1.23,2.51-2.14-2.12.54-5.66,2.47-8.54,4.73-1.44,1.16-2.71,2.33-3.57,3.38-.86,1-1.31,1.84-1.18,1.96-1.3,1.38-1.57,1.52-1.77,1.42-.1-.05-.18-.14-.34-.1-.15,0-.47.26-1.07.98-.65.98-1.27,2.13-1.59,3.4-.34,1.27-.36,2.64-.25,3.98.47,3,2.46,5.5,4.5,7.05,1.09.88,1.78,1.25,2.41,1.69.62.43,1.11.77,1.45,1.14.33.35-1.4-.37-2.3-.9.82.41,2.08,1.07,3.44,1.68,1.36.61,2.83,1.16,4.13,1.59,2.59.83,4.46,1.17,3.3.27,3.64,1.33,7.2,1.94,10.53,2.45,3.34.51,6.47.88,9.33,1.61,3.94-.67,12.41,2.06,13.78.41-.35.87,2.81,1.55,6.63,1.89,3.82.35,8.3.36,10.62.08-1.57.45,3.95.82,2.11,1.46,5.24.3,10.06.21,9.19-.77,9.54,2.67,19.42-.87,24.73,2.09,15.55-.44,29.9-.76,43.84-.86-.54,1.8-15.41-.18-14.86,1.72,13.24-.42,20.9-1.81,33.99-1.05,3.38.33-1.94.73-3.1,1.02,13.21-.43,25.49.8,37.23.25-.04.17-1.31.3-2.51.4,2.31.02,5.36.46,5.13-.36l-2.26.14c-3.64-1.34,9.27-2.13,9.71-2.72-4.02,2.15,11.54,1.15,5.17,3.81,1.52-.08,3.44-.36,3.12-.93,2.24.29,2.93.64.62,1.14,8.25.04,5.39-1.02,12.84-.47-.06.4-1.57.43-2.37.84,3.81-.49,7.68-.99,13.89.03-.4.2.29.58-1.57.38,5.36.51,9.95.6,14.59,1.11,1.16.13,2.32.29,3.48.5,1.14.21,2.44.53,3.14.74.84.26,1.72.61,2.5,1.13.38.27.75.57,1.01.98.26.4.4.9.26,1.41-.27-.27-.54-.39-.75-.43-.2-.04-.34,0-.44.07-.18.15-.25.49-.45.85-.41.72-1.3,1.36-2.09,1.04-.2.28-.45.57-.74.86l-.13.12-.28.22-.59.43c-.39.29-.81.57-1.21.85.81-.19,1.62-.4,2.41-.63-4.38,2.77-8.51,5.74-13.09,7.09,1.19-.71,2.38-1.42,3.54-2.16-3.1,1.47-6.29,2.81-9.52,4.08,1.91-.49,3.82-1,5.71-1.56-4.98,2.74,1.28,1.6-5.87,3.78,1.39-.64-5.31,1.85-8.38,1.85h.02c-2.5,1.27-5.1,2.58-9.2,3.34-1.17-.17.39-1.82-.37-1.94-1.14.97-4.28,1.91-7.53,2.83-3.24.92-6.59,1.81-8.13,2.84,1.06-.56.94-1.34.54-1.41l-2.01,1.5c-2.61.24-3.01.17-2.73-.53-7.67,1.42,2.83,1.37-6.43,2.43.7-.22.33-.3,1.78-.75-9.2,1.43-17.59,3.91-26.16,4.56-2.7-1.13,7.34-1.4,4.31-2.26-12.1,2.07-25.11,4.84-37.07,5l2.23.06c-1.56,2.22-8.93-.64-14.92.41,1.48-.18,1.92-1.21,1.52-.96-8.16-.23-16.68.58-29.11.61l1.56-.46c-4.79-.71-12.65-1.05-17.82-1.75-1.59.42-4.55.05-2.82,1.01-15.69-4.52-30.7-1.73-44.63-6.05,1.7.2,4.11.03,2.76-.14-4.06-.34-8.12-.66-12.2-.95.86,1.02,1.53.73,4,1.74-1.6.37-5.07.39-8.07.08,5.52-.03.12-1.49-2.21-2.23.37.32-.47.55-.3.86-6.23-2.2-1.22,1.69-9.82-.03l.49-.46c-3.28.05-6.31.57-9.82.44-1.47-1.07,3.48-.49,3.73-1.33-2.5-.03-4.96.47-7.34.94-2.38.46-4.65.86-6.96.62,2.06-.59,5.11-.81,7.22-1.17-2.49-.54-3.91-.64-5.15-.63-1.24.03-2.31.17-4.19.37l.37-.03c-2.89.27-5.82.73-8.72,1.58.76-.15,1.52-.27,2.28-.39-1.37,1.16-2.78,2.03-4.2,2.93-1.43.86-2.91,1.71-4.37,2.72-2.93,1.95-5.84,4.82-7.24,8.91.7-1.96,1.21-3.02,1.37-3.58.2-.53.07-.55-.21-.37-.54.38-1.6,1.64-1.91,1.03-1.64,1.69-3.51,4.63-3.36,3.6-.55,2.11-1.39,3.62-2.23,5.43-.8,1.8-1.58,3.94-1.47,7.04-.51.16-.67,4.58-1.51,3.53.01,1.5.06,2.15.17,2.32.1.16.15-.21.28-.71.11-.51.24-1.18.38-1.68.16-.49.32-.82.43-.69.13,2.19.11,4.56.71,7.23.2.67.29,1.35.62,2.03.28.69.56,1.39,1.04,2.05.79,1.38,2.1,2.6,3.54,3.45,2.95,1.7,6.17,2.03,9.12,1.93,2.97-.12,5.81-.74,8.53-1.6,1.5-.41,2.8-.83,4.19-1.08.69-.12,1.38-.19,2.05-.11.67.07,1.28.38,1.6.84.62.93.62,2.06.34,3.39-.31,1.34-.98,2.94-2.27,4.89-1.21,1.01-1.06.28-.69-.65.31-.79.73-1.87.73-1.87-.33.4-.67.76-.97,1.1-.35.38-.69.74-1.03,1.1-.72.78-1.43,1.5-2.15,2.22-1.44,1.41-2.87,2.8-4.63,4.18.57-.77-.37-.48-1.71-.21-1.46.88-1.84,1.39-2.4,1.93-.56.5-1.33,1.08-3.63,1.3.68-.61,1.46-1.47,2.75-2.46-1.72.85-3.5,1.58-5.41,1.95-.95.16-1.94.32-2.94.26-.5-.03-1.01,0-1.52-.07-.51-.09-1.02-.17-1.53-.26-.43-.46.27-.55,1.2-.53.23,0,.48.02.73.03.25-.02.51-.04.77-.05.5-.04.96-.04,1.3-.15-2.12,0-4.92-.64-7.24-1.73-1.15-.55-2.24-1.08-3.09-1.58-.9-.44-1.57-.82-2.02-.89.63.85,1.38,1.56,2.12,2.33-1.42-1.09-.13-1.26.97-.68,1.88.78,3.05,1.47,3.83,2.07.78.57,1.12,1.15,1.17,1.37-.96-.31-1.96-.53-2.89-.98.42.91,1.45,1.61,2.81,2.16,1.38.49,3.1.75,4.89.63,1.79-.12,3.62-.6,5.29-1.24,1.68-.64,3.21-1.45,4.59-2.14-.5.89-1.07,1.77-1.72,2.62,1.93-1.26,3.61-2.77,5.1-4.39,1.33-.48,2.77-.34.25,1.78,2.19-1.03,2.91-1.88,3.54-2.63.63-.76,1.18-1.42,2.89-2.66.41-.25.34-.04.1.32.47-.66.88-1.28,1.32-2.01.46-.74.86-1.48,1.21-2.22-.09.47.31.39.49.5.19.11.16.5-.96,1.87,1.72-1.93,2.91-4.11,3.39-5.99.48-1.87.45-3.58-.43-4.86-.45-.62-1.1-1.01-1.73-1.2-.63-.2-1.24-.31-1.8-.37-1.13-.13-2.06-.21-2.87-.48.29-.04.59-.1.87-.13-1.75.08-3.12.38-4.12.58-.5.11-.92.21-1.26.3-.28.08-.51.16-.7.23-.74.28-.76.46-.69.66.13.38.68.89-3.51,2.14-2.04-.79-4.05-1.66-5.7-2.78-.36.39-.74.76-1.14,1.12-.55-.08-1.36-.27-1.92-.53-.57-.26-.89-.56-.63-.71-.48-.06-.81-.16-1.07-.19-.24-.06-.4-.09-.49-.09-.19,0-.11.13.02.28.12.16.31.33.31.43,0,.1-.19.18-.82.01-1.04-.95-2.01-2.21-2.6-3.76-.59-1.53-.93-3.26-.95-4.89-.08-3.27.71-6,1.78-6.35-.21-1.05-.73.16-1.01.96-.15.39-.26.67-.31.48-.04-.19-.08-.86.14-2.35,1.2-.58,1.58-2.2,2.09-4.28.53-2.06,1.27-4.61,2.97-6.56.11,1.86-2.39,5.77.66,1.81-.1-1.72,1.25-3.8,3.11-5.47,1.85-1.71,4.17-2.88,5.77-4.05-.31-.65,1.51-2.01,4.44-3.13,2.91-1.14,6.87-1.91,10.4-2.54-.2.26,3.16.04,7.43.15,4.27.1,9.44.53,12.77,1.03l-.21.23c1.39-1.41,8.33-.56,13.42-.29-.29.85-1.24,1.1-4.01,1.21l4.74.49c1.17-.35,2.68-.43,5.79-.23l-1.32.95c6.33.68,12.9.29,20.97,2.03.58-.96-6.14-3.63,2.57-3.25.25.59.46,1.57-1.83,1.52.75.02,2.69-.13,4.16.28l-3.56.5c3.67.86,2.04-.53,5-.09-.15.78,2.14.82,1.63,1.39-.77-.02-2.56-.63-3.73-.46,3.34.55,7.34,1.49,8.62,2.23-.24-.48.12-1.06,2.59-.88,6.37.63,2.08,1.18,5.76,1.97,1.6-.38,5.62.58,5.84-.59,1.87.18,2.16.76,2.86,1.14,3.35-.18,15.49,1.04,11.84-.48l-.84-.14c.16,0,.35,0,.54-.01h-.03s.03,0,.03,0c10.89-.43,22.53,1.82,33.35,1.22v.39c6.43-.47,14.34-.6,18.88-1.71,1.9-.12,4.53.44,3.75.96,4.9-.65,5.41-1.11,12.56-1.14-4.87,1.16,1.77.47-5.02.97,6.42-.24,7.96.24,14.67-1.68-2.21,1.31,4.97.66,7.95-.11l-4.56-.08c3.38-.61,6.36-.97,9.38-1.36l-1.42,1.57c6.64-.22,12.39-1.97,17.71-3.61,5.33-1.65,10.23-3.17,15.42-3.05,3.16-1.72-7.11,1.03-4.33-.76,5.91-1.18,12.5-.98,14.34-1.49,4.12-.76,5.85-1.8,7.6-2.87,1.75-1.08,3.53-2.19,7.73-3.35-1.22-.11-2.57-.91,3.35-3.51,2.86-.96,4.76-1.2,5.54-.94.78.25.42.99-1.31,1.88-1.35.57-2.07.67-2.07.5-1.78.86-4.16,1.91-1.7,1.58l.58-.72c1.51-.29,4.23-1.21,6.36-1.95,2.14-.73,3.71-1.24,2.95-.48,4.11-2.37,1.51-1.5-1.75-.36,3.77-1.25,6.61-2.6,9.41-4.22.7-.41,1.4-.83,2.12-1.29.36-.23.66-.43,1.25-.83.51-.37,1.03-.74,1.53-1.13,1.99-1.61,3.99-3.53,4.88-6.17-.37.84-.98,1.54-1.36,1.84-.4.29-.48.23-.08-.49,1.02-1.66,1.19-3.34.84-4.59-.32-1.25-.96-2.02-1.46-2.59-1.09-1.1-1.87-1.38-2.44-1.59-.59-.16-1.02-.27-2.01-.53-.45-.13-1.02-.31-1.81-.54-.75-.22-1.84-.53-2.75-.77-2.15-.97-1.66-1.25-1.62-1.53.04-.24-.44-.56-4.52-1.04-4.82-1.35-.84-1.45,1.23-1.44-3.81-.28-7.19-.9-10.2-1.57-3-.66-5.59-1.35-7.67-1.63h3.9c-2.34-.01-4.22-.2-6.14-.37l2.11,1.15c-2.24-.38-4.15-.54-4.07-.93-2.37.43,1.64,1.71-3.02,2.19-2.96-.72-9.13-.11-10.09-1.42,9.38,1.02-.97-1.35,7.03-1.02-1.55.04-3.43-.09-5.67-.4-.33-.16.33-.24.95-.27-8.96-1.65-4.23,1.16-13.55.67,1.22-.65-2.1-1.44-3.63-1.36,3.76.18,1.74,1.26-1.72,1.66-5.95-.79-6.5.16-9.62-.02l3.56.39c-1.23.67-4.21.46-8.38.55-.34-.57,3.79-.26,2.31-.55-4.65,1.09-10.39-1.62-16.85-.95-2.97-.56-.25-1.34-2.86-1.74-7.23.74-7.79-1.17-15.38-.59,2.16,1.01,2.55.78-2.81,1.59l12.47-.38-8.03,1.2c3.76.1,7.95-.41,10.19-.19-3.83.68-3.43.46-1.65,1.29-5.11-1.56-10.22.59-16.14-.51l.24-2.36c-8.91-1.26-15.9.85-27.48-.05l3.71.51c-1.58.9-7.16-.05-10.92.22.37-.78-1.97-1.13-3.55-1.67.18.6-8.47-.31-9.58,1.22l-5.13-1.22c-9.32-.78-10.76,1.84-19.73,1.13,2.75-.72-1.3-1.48,4.74-1.8-2.99-.15-5.68-.43-5.75.11-1.72-.58-8.36.61-11.06-.33-1.28.26-1.75,1.07-5.1.76-.36-.19.04-.39.04-.39-.04.39-5.29.14-2.43,1.23-4.52-1.57-10.94-2.07-17.19-2.69-6.25-.61-12.35-1.39-16.05-3.18-3.18-.46-6.67-1.1-9.95-1.97-3.26-.86-6.41-2.06-8.36-3.49.37-.04.21-.3.94.27-.32-.24-.62-.52-.79-.66-.16-.17-.33-.3-.46-.44-.29-.28-.53-.5-.74-.7-.44-.42-.8-.76-1.14-1.17-.31-.46-.67-1.05-.47-1.97.08-.45.3-1.01.7-1.55.42-.63,1.1-1.32,1.99-2.06,2.12-1.03,1.31-.11.41.84-.22.24-.44.5-.64.72-.18.23-.33.44-.44.58-.21.29-.19.36.31-.05.66.2,1.34-.11,2.18-.73.83-.63,1.88-1.55,3.11-2.57,2.48-2.01,5.79-4.26,8.86-4.92l-1.24.8c2.26-.67,4.7-2.11,7.54-3.7,2.84-1.59,6.07-3.33,9.75-4.55,0,0-.28.34.09.38,4.51-3.05,14.02-6.65,21.29-8.48-2.05,1.5-3.19,1.27-1.57,1.96,3.22-.87-1.35-1.4,5.15-3.15,2.26.12,7.1-.11,7.86.87l-6.14,1.05c1.71.45,3.67.12,5.64-.36.49-.13.99-.25,1.47-.38.49-.11.98-.2,1.45-.28.95-.17,1.86-.31,2.68-.32l-.36.66c2.35-.28,4.12-.61,5.62-.79,1.5-.23,2.72-.48,3.97-.73,1.25-.28,2.53-.41,4.15-.51.81-.05,1.7-.08,2.71-.09.51,0,1.04,0,1.61,0,.57.04,1.18.08,1.82.13l-1.04-.55c5.79-1.12,4.68,1.12,10.44.61l1.53,1.76c1.88-.02,5.19.11,8.89.23,3.7.19,7.77.44,11.15.83-3.99.55-11.92-.08-16.83-.01,3.67.47,12.55,1.71,14.61,1.25-1.52-.09-3.45.01-4.89-.46,4.73-.55,10.82-.15,18.22,1-.89,1.42,3.92,2.35,9.61,3.24,2.84.48,5.91.85,8.58,1.36,2.67.51,4.96,1.08,6.27,1.79,3.36.04,6.67.3,10.02.56,3.35.24,6.71.57,10.15.95,6.88.56,14.06,1.34,21.84,1.35-5.47-2.48,4.54,0,3.61-2.46,3.61-.12,4.98-.08,5.3.08,3.64.5,7.29.96,10.96,1.39,2.61.67-3.43.59-3.1,1.13,7.94.07,3.34.99,8.63,1.53-1.1-.85,2.73-1.31,7.29-1.17-2.15-.28-4.29-.58-6.43-.9,5.53-.82,7.94-.44,10.39-.05,1.22.19,2.45.38,4.08.38.81,0,1.73-.05,2.79-.16.53-.06,1.1-.14,1.71-.24.31-.05.62-.11.95-.17.36-.07.73-.14,1.12-.22-.3.06-.38.1-.54.15l-.44.14-.88.27-1.76.54c.72-.12,1.6-.23,2.6-.36.68-.08,1.41-.17,2.16-.26.97-.11,2.04-.26,3.11-.4,4.24-.6,9.08-1.52,12.06-3.08,1.51-.77,2.52-1.64,3.27-2.53.72-.92,1.28-1.77,1.5-3.08.2-.65.06-1.48-.09-2.03-.14-.57-.42-1.03-.72-1.42-.59-.79-1.34-1.38-2.15-1.84-.15-.37-.24-.84-.06-1,.19-.16.79,0,1.67.95-.94-1.31-2.49-2.68-4.94-3.93-2.41-1.24-5.44-2.33-8.5-3.28l-2.31-.68-2.2-.6-2.73-.64c-1.82-.41-3.63-.79-5.42-1.16-7.14-1.46-13.86-2.72-18.91-4.49l1.14-.35c-2.53-.4-4.57.12-7.56-1.15.21-.21,1.13-.36-.01-.65-1.36-.09-6.83-.41-10.06-1.45l2.96-.06c-12.86-3.52-20.31-2.53-31.3-4.3.37-1.72-9.77-4.3-14.83-5.58l.23-.21c-15.12-3.17-26.03-3.55-40.18-5.65-4.16-1.8-11.48-3.47-19.42-5.26-3.97-.9-8.1-1.83-12.04-2.85-3.91-1.02-7.74-2.14-10.66-3.41.86.46.7.76,0,.88-.66.12-1.93,0-2.68-.28-.07-.06-.15-.11-.23-.18h0s0,0,0,0h0s-.06.09-.06.09c-.18.27-.4.55-.6.8-.14.22-.31.42-.49.62-.09.1-.19.19-.29.28-.1.09-.13.15-.21.22-.12.13-.33.26-.45.33-.08.07-.22.13-.31.14,0,.02-.12.02-.07.02.07.01.05.03.13.08.13.08.23.18.29.3.06.12.28.36.37.55.06.1.11.21.15.32l.06.16.11.22c.15.3.27.61.38.92.05.16.1.32.15.48-.01,0-.02,0,0,0l.05-.03s.06-.04.15-.07c.13-.05.29-.1.48-.15.36-.1.78-.18,1.18-.25,1.62-.26,2.96-.24,2.7.57h-1.12c1.18.74,3.39,1.03,6.02,1.21,2.62.18,5.64.23,8.29.41l1-2.06c13.69,3.89,36.69,1.82,44.08,5.26,3.42-.21,7.6.19,11-.02l-.29,1.11c9.32,1.17,13.98,1.76,25.57,2.59l-2.43.58c6.52.69,8.54-2.47,14.57-1.97l1.65,1.85c11.38,1.04,22.79,3.57,34.19,3.02-.21.23-.58.69-2.44.6,5.36.53,20.68,2.89,18.92.41.01,1.52,11.77,1.08,17.98.85l-1.04,1.04c5.31-1.05,5.5-1.42,12.8-1.35,1.72.25,1.46.99-.82.56,5.71.94,4.54-.77,11.48.21l-2.64.57c5.92.41,5.47,0,8.77-.67,3.74-.26,11.22.74,12.07,1.76.82-.59,4.09-1.32,7.58-.97.47.39-.81.61-1.46.71,4.97.47,8.68.14,12-.19,3.32-.34,6.23-.67,9.72-.34.17.36.63.52,1.22.58-8.04.53-14.4.36-13.81.31,0,1.04,6.46,1.13,1.34,2.62,2.59-.41,6.1-1.09,9.76-1.75,3.68-.66,7.41-1.28,10.79-1.61.47.03.97.01,1.38.1l-1.02.32c2.38-.32,4.46-.98,6.03-1.82.76-.24,1.35-.54,1.94-.8.53-.31,1.07-.58,1.5-.93.89-.67,1.67-1.42,2.27-2.58.16-.08.36-.28.54-.61.1-.16.19-.36.29-.58.12-.22.18-.47.21-.75.24-1.12.14-2.51-.43-3.9-.53-1.4-1.57-2.83-2.82-4.08-1.22-1.28-2.7-2.31-3.8-3.13-.22.51-1.66-.16-2.43-.41-.3-.06-.48-.05-.4.15.01.16.57.71,1.55,1.65-.27-.25-.07-.14.52.25.59.39,1.6,1.08,2.72,2.11.56.44,1.06,1.03,1.43,1.33-.09-.05-.19-.12-.31-.19.95,1.08,1.86,2.36,2.29,3.97.21.8.27,1.73.05,2.66-.25.93-.73,1.77-1.4,2.47.4-.63.74-1.33.89-2.16.05-.2.07-.42.11-.62.02-.21,0-.43,0-.65-.02-.21-.04-.43-.06-.65-.04-.21-.09-.42-.14-.64-.5-1.68-1.44-3.18-2.81-5.02-1.17-.63-2.39-1.15-3.45-1.51-1.06-.38-1.91-.59-2.5-.77-1.46-1.86-4.03-3.97-6.35-5.69-2.31-1.74-4.34-3.14-4.69-3.83-9.26-3.52-21.64-8.16-28.11-8.09-2.7-.62-2.82-1.58-3.69-2.22,1.58.29,3.37.93,4.29.92-5.4-1.29-15.65-4.81-17.34-3.75-6.47-2.61,4.14-.2-5.1-2.67l1.36-.07c-8.71-3.76-16.38-4.82-24.24-5.88-7.88-1.05-15.93-2.13-25.85-5.63,1.38.46,2.07.69,2.31.99-11.51-3-23.7-4.59-35.83-5.83-3.04-.29-6.07-.59-9.09-.88-3.03-.23-6.05-.48-9.05-.78-3-.33-5.99-.51-8.96-.84-2.97-.34-5.92-.68-8.84-1.01-6.66-.65-7.41.26-11.48.96l-1.43-1.22c-2.33.46-4.64.85-6.95,1.38-4.91.58-9.18-.12-13.8-.54-4.62-.49-9.59-.7-15.76.67l1.66.69c-2.24.08-5.76.5-8.65.75-2.88.26-5.11.45-4.79-.07-.44.19-1.38.99-3.16.74l-.2-.61c-3.62.72-7.21,1.56-10.8,2.35-8.51.74.99-2.73-11.39-1.02-4.57.91-12.72,4.01-10.93,4.11,1.85-.29,4.77-.42,5.01.18l-4.1,1.04c-.44,1.97-3.24,4.38,7.08,3.93l6.88-2.23,2.41.57c-1.98.28-3.96.63-5.93.95,3.49.3,5.51-.75,7.84-1.58.63.4,1.67.59,3.1.58,2.23-.91,4.48-1.75,6.74-2.62.93.62-2.95,1.81,1.76,1.65,3.17-1.2-3.32-1.27,2.04-2.41,3.5.5,2.57,1.29,6.49.16.61.42-.21.81-1.77,1.18,3.49-.98,9.38-1.04,11.14-2.2,3.62.8,12.03-1.02,11.76.8,1.1-.46,6.22-1.63,9.5-1.8-5.94,2.21,12.28-.08,10.7,2.25,2.21-.92,6.21-1.13,10.63-1.15,2.21.02,4.53.04,6.79.07,1.13,0,2.24-.02,3.32-.05,1.08-.01,2.12-.05,3.11-.12-.45.12-1.32.38-2.01.24,4.4.41,5.65,1.06,8.45,1.58.67-1.59,7.56-1.32,11.36-1.98,5.26,1.96-3.45,1.55-1.88,3.15-.08-.63,2.29-.78,4.46-.85,2.17-.05,4.15-.09,3.29-.72,4.02,1.39,3.5.85,5.47,2.37.48-.93,1.45-.92,2.74-.74,1.29.19,2.9.52,4.68.17,5.8,1.8,1.27,2,7.86,2.38,1.49.56.77.76-.32.83-.54.03-1.19.04-1.69.05-.5,0-.87,0-.87,0Zm125.89,41.63s0-.02,0-.02c.32-.05.63-.11.92-.15.25-.05.5-.09.72-.13.28-.06.52-.12.71-.16-.17.04-.38.09-.65.16-.2.04-.42.08-.67.13-.31.06-.65.12-1.04.19Zm-12.92.97c1.6,0,3.58-.08,5.66-.21.48.36.01.79-1.3.84.7-.29-2.39-.35-4.36-.63Zm28.27-5.49c.56,1.37.55,2.38.42,3.06-.06.34-.12.6-.2.79-.11.18-.21.31-.29.39.36-1.4.28-3.09-.69-4.94-.08-.07-.2-.22-.3-.29.36.21.69.48,1.06.98Z"/>
        <path class="cls-11" d="m464.63,242.63c-.35-.28-.54-.44-1.01-.79.42.45.71.9,1.08,1.32.36.2.72.42,1.05.61-.36-.39-.73-.8-1.13-1.14Z"/>
        <path class="cls-11" d="m210.51,379.17l.28.05c-.23-.06-.44-.12-.58-.2.18.07.18.1.3.16Z"/>
        <polygon class="cls-11" points="258.55 236.87 258.55 237.15 259.73 237.01 258.55 236.87"/>
        <path class="cls-11" d="m138.09,367.46c-.13-.11-.4-.24-.93-.38.04.08.44.22.93.38Z"/>
        <path class="cls-11" d="m105.96,367.06c-1.56.12-3.12.3-4.7.57,2.05-.29,3.52-.44,4.7-.57Z"/>
        <path class="cls-11" d="m83.23,379.16c-.04.39.02.55.08.7.02-.01.03-.03.04-.04l-.12-.66Z"/>
        <path class="cls-11" d="m313.41,336.28c-.33,0-.65,0-.94.02-2.2.14-.71.11.94-.02Z"/>
        <path class="cls-11" d="m350.81,360.47c1.1-.56,2.17-1.11,3.33-1.63-1.95.56-3.46,1-3.33,1.63Z"/>
        <path class="cls-11" d="m184.87,333.5s0,0,.01-.02c-.28-.02-.52-.03-.8-.05l.78.07Z"/>
        <path class="cls-11" d="m359.15,357.13c-1.98.47-3.57,1.06-5.01,1.7,1.6-.45,3.49-.98,5.01-1.7Z"/>
        <path class="cls-11" d="m76.34,426.17c-.26-.2-.55-.37-.79-.61-.03.07-.11.08-.2.07.31.22.66.37.99.54Z"/>
        <path class="cls-11" d="m75.34,425.64l-.96-.6c.41.32.76.6.96.6Z"/>
        <path class="cls-11" d="m72.43,423.6c.67.48,1.26,1.03,1.95,1.44-.66-.5-1.31-1.3-1.95-1.44Z"/>
        <path class="cls-11" d="m101.1,421.96l-.07-.52c-.06.19-.05.36.07.52Z"/>
        <path class="cls-11" d="m104.58,416.74c-.26.59-.87,1.28-1.42,1.81-.28.28-.54.51-.81.79-.47.55-.94,1.1-1.38,1.68l.06.42c.11-.36.5-.78.97-1.28.12-.12.25-.25.38-.39.12-.12.3-.32.35-.34.16-.12.35-.29.54-.46.76-.65,1.57-1.76,1.31-2.23Z"/>
        <path class="cls-11" d="m80.56,401.95c0,.61-.01,1.23.08,1.81.04.29.05.6.11.89l.21.84.1.42.16.38.31.78.44.68.22.35.27.3c-.06-.14-.13-.27-.17-.42-.03-.15-.06-.3-.09-.44-.04-.27-.06-.48,0-.59.05-.11.17-.12.36.01.19.13.43.44.88.82-.88-1.41-.96-2.22-1.12-2.5-.11-.31-.21-.09-.35.16-.13.24-.27.49-.56.17-.13-.17-.3-.49-.51-1.04-.13-.59-.34-1.41-.33-2.63Z"/>
        <path class="cls-11" d="m89.34,380.42c-1.22,1.57-1.03,1.69-.63,1.4.43-.26,1.16-.85,1.18-.69.67-1.02,1.13-1.64,1.13-1.79,0-.08-.14-.04-.42.12-.26.18-.68.49-1.26.96Z"/>
        <path class="cls-11" d="m268.08,380.15l-.37,1.05c3.41-.4,0-.4.37-1.05Z"/>
        <polygon class="cls-11" points="302.29 370.75 298.96 370.65 297.56 371.81 302.29 370.75"/>
        <polygon class="cls-11" points="324.07 373.98 322.64 374.44 328.15 372.83 324.07 373.98"/>
        <path class="cls-11" d="m150.29,320.27l.82,1.39c2.28.09,2.93-1.24-.82-1.39Z"/>
        <path class="cls-11" d="m210.99,283.6c1.39.75,5,1.36,7.31.97-2.92-.36-5.81-1.01-7.31-.97Z"/>
        <polygon class="cls-11" points="222.55 243.95 219.87 244.19 224.89 244.2 222.55 243.95"/>
      </g>
      <rect class="cls-13" y="650.7" width="380.97" height="96.41"/>
      <text class="cls-5" transform="translate(56.73 674.01)"><tspan x="0" y="0">Que</tspan><tspan class="cls-10" x="63.04" y="0">r</tspan><tspan x="84.82" y="0">o</tspan><tspan class="cls-9" x="106.56" y="0"> </tspan><tspan x="113.05" y="0">ajundar</tspan><tspan class="cls-9" x="264.57" y="0" xml:space="preserve"> a</tspan><tspan x="292.45" y="0" xml:space="preserve"> su</tspan><tspan class="cls-9" x="340.27" y="0">a</tspan><tspan x="361.66" y="0"> </tspan><tspan x="0" y="35.4">empres</tspan><tspan class="cls-10" x="124.85" y="35.4">a a</tspan><tspan x="174.12" y="35.4" xml:space="preserve"> ch</tspan><tspan class="cls-9" x="221.68" y="35.4">e</tspan><tspan x="240.82" y="35.4">gar no</tspan><tspan class="cls-14" x="355.76" y="35.4"> </tspan><tspan class="cls-10" x="362.1" y="35.4">t</tspan><tspan x="381.31" y="35.4">oo</tspan><tspan class="cls-14" x="424.79" y="35.4">p</tspan></text>
    </g>
  </g>
</svg>